<mxfile host="app.diagrams.net" modified="2023-08-08T07:19:13.844Z" agent="Mozilla/5.0 (X11; Linux x86_64) AppleWebKit/537.36 (KHTML, like Gecko) Chrome/115.0.0.0 Safari/537.36 Edg/115.0.1901.188" version="21.6.6" etag="1lwAguxzVqhw2O-vrfFs" type="github">
  <diagram name="Page-1" id="NK4dMXUaYdrK2VCFNdaU">
    <mxGraphModel>
      <root>
        <mxCell id="0" />
        <mxCell id="1" parent="0" />
      </root>
    </mxGraphModel>
  </diagram>
</mxfile>
